<?xml version="1.0" encoding="UTF-8"?>
<svg width="1200" height="800" xmlns="http://www.w3.org/2000/svg">
  <defs>
    <style>
      .title { font-family: Arial, sans-serif; font-size: 24px; font-weight: bold; fill: #8B0000; }
      .subtitle { font-family: Arial, sans-serif; font-size: 18px; font-weight: bold; fill: #333; }
      .class-name { font-family: Arial, sans-serif; font-size: 14px; font-weight: bold; fill: #8B0000; }
      .method { font-family: Arial, sans-serif; font-size: 12px; fill: #333; }
      .property { font-family: Arial, sans-serif; font-size: 12px; fill: #666; }
      .enum { font-family: Arial, sans-serif; font-size: 12px; fill: #0066CC; }
      .arrow { stroke: #333; stroke-width: 2; fill: none; marker-end: url(#arrowhead); }
      .dependency { stroke: #666; stroke-width: 1; stroke-dasharray: 5,5; fill: none; marker-end: url(#arrowhead); }
      .class-box { fill: #f8f9fa; stroke: #8B0000; stroke-width: 2; }
      .enum-box { fill: #e3f2fd; stroke: #0066CC; stroke-width: 2; }
      .main-box { fill: #fff3e0; stroke: #ff9800; stroke-width: 3; }
    </style>
    <marker id="arrowhead" markerWidth="10" markerHeight="7" refX="9" refY="3.5" orient="auto">
      <polygon points="0 0, 10 3.5, 0 7" fill="#333" />
    </marker>
  </defs>
  
  <!-- Title -->
  <text x="600" y="30" text-anchor="middle" class="title">StudyBuddy Flutter Application - UML Class Diagram</text>
  
  <!-- Main Application -->
  <rect x="50" y="60" width="200" height="80" class="main-box" rx="5"/>
  <text x="150" y="80" text-anchor="middle" class="class-name">main.dart</text>
  <text x="60" y="100" class="method">+ main()</text>
  <text x="60" y="115" class="method">+ MyApp()</text>
  <text x="60" y="130" class="method">+ runApp()</text>
  
  <!-- Splash Screen -->
  <rect x="300" y="60" width="200" height="100" class="class-box" rx="5"/>
  <text x="400" y="80" text-anchor="middle" class="class-name">SplashScreen</text>
  <text x="310" y="100" class="property">- Timer _timer</text>
  <text x="310" y="115" class="property">- VideoPlayerController</text>
  <text x="310" y="130" class="method">+ build(BuildContext)</text>
  <text x="310" y="145" class="method">- _initializeVideo()</text>
  
  <!-- Home Screen -->
  <rect x="550" y="60" width="200" height="100" class="class-box" rx="5"/>
  <text x="650" y="80" text-anchor="middle" class="class-name">HomeScreen</text>
  <text x="560" y="100" class="property">- int _selectedIndex</text>
  <text x="560" y="115" class="property">- List&lt;Widget&gt; _screens</text>
  <text x="560" y="130" class="method">+ build(BuildContext)</text>
  <text x="560" y="145" class="method">- _onItemTapped(int)</text>
  
  <!-- Dashboard Screen -->
  <rect x="800" y="60" width="200" height="120" class="class-box" rx="5"/>
  <text x="900" y="80" text-anchor="middle" class="class-name">DashboardScreen</text>
  <text x="810" y="100" class="method">+ build(BuildContext)</text>
  <text x="810" y="115" class="method">- _buildWelcomeSection()</text>
  <text x="810" y="130" class="method">- _buildQuickStatsSection()</text>
  <text x="810" y="145" class="method">- _buildStudyProgressSection()</text>
  <text x="810" y="160" class="method">- _buildRecentActivitySection()</text>
  <text x="810" y="175" class="method">- _buildPerformanceMetricsSection()</text>
  
  <!-- Study Groups Screen -->
  <rect x="50" y="200" width="200" height="100" class="class-box" rx="5"/>
  <text x="150" y="220" text-anchor="middle" class="class-name">StudyGroupsScreen</text>
  <text x="60" y="240" class="property">- List&lt;StudyGroup&gt; studyGroups</text>
  <text x="60" y="255" class="method">+ build(BuildContext)</text>
  <text x="60" y="270" class="method">- _buildStatsOverview()</text>
  <text x="60" y="285" class="method">- _buildStudyGroupCard()</text>
  
  <!-- Schedule Screen -->
  <rect x="300" y="200" width="200" height="120" class="class-box" rx="5"/>
  <text x="400" y="220" text-anchor="middle" class="class-name">ScheduleScreen</text>
  <text x="310" y="240" class="property">- int _selectedViewIndex</text>
  <text x="310" y="255" class="property">- DateTime _selectedDate</text>
  <text x="310" y="270" class="property">- List&lt;ScheduleEvent&gt; _events</text>
  <text x="310" y="285" class="method">+ build(BuildContext)</text>
  <text x="310" y="300" class="method">- _buildWeeklyView()</text>
  <text x="310" y="315" class="method">- _buildDailyView()</text>
  
  <!-- Profile Screen -->
  <rect x="550" y="200" width="200" height="120" class="class-box" rx="5"/>
  <text x="650" y="220" text-anchor="middle" class="class-name">ProfileScreen</text>
  <text x="560" y="240" class="property">- int _selectedTabIndex</text>
  <text x="560" y="255" class="property">- UserProfile _userProfile</text>
  <text x="560" y="270" class="method">+ build(BuildContext)</text>
  <text x="560" y="285" class="method">- _buildOverviewTab()</text>
  <text x="560" y="300" class="method">- _buildAchievementsTab()</text>
  <text x="560" y="315" class="method">- _buildSettingsTab()</text>
  
  <!-- Data Models Section -->
  <text x="600" y="380" text-anchor="middle" class="subtitle">Data Models</text>
  
  <!-- StudyGroup Model -->
  <rect x="50" y="400" width="180" height="100" class="class-box" rx="5"/>
  <text x="140" y="420" text-anchor="middle" class="class-name">StudyGroup</text>
  <text x="60" y="440" class="property">+ String name</text>
  <text x="60" y="455" class="property">+ String subject</text>
  <text x="60" y="470" class="property">+ int members</text>
  <text x="60" y="485" class="property">+ int maxMembers</text>
  <text x="60" y="500" class="property">+ String meetingTime</text>
  <text x="60" y="515" class="property">+ String location</text>
  <text x="60" y="530" class="property">+ String description</text>
  <text x="60" y="545" class="property">+ bool isActive</text>
  
  <!-- ScheduleEvent Model -->
  <rect x="250" y="400" width="180" height="100" class="class-box" rx="5"/>
  <text x="340" y="420" text-anchor="middle" class="class-name">ScheduleEvent</text>
  <text x="260" y="440" class="property">+ String title</text>
  <text x="260" y="455" class="property">+ String description</text>
  <text x="260" y="470" class="property">+ DateTime startTime</text>
  <text x="260" y="485" class="property">+ DateTime endTime</text>
  <text x="260" y="500" class="property">+ String location</text>
  <text x="260" y="515" class="property">+ EventType type</text>
  <text x="260" y="530" class="property">+ Color color</text>
  <text x="260" y="545" class="property">+ int dayOfWeek</text>
  
  <!-- UserProfile Model -->
  <rect x="450" y="400" width="180" height="100" class="class-box" rx="5"/>
  <text x="540" y="420" text-anchor="middle" class="class-name">UserProfile</text>
  <text x="460" y="440" class="property">+ String name</text>
  <text x="460" y="455" class="property">+ String email</text>
  <text x="460" y="470" class="property">+ String studentId</text>
  <text x="460" y="485" class="property">+ String major</text>
  <text x="460" y="500" class="property">+ double gpa</text>
  <text x="460" y="515" class="property">+ int totalStudyHours</text>
  <text x="460" y="530" class="property">+ int studyStreak</text>
  <text x="460" y="545" class="property">+ List&lt;Achievement&gt; achievements</text>
  
  <!-- Achievement Model -->
  <rect x="650" y="400" width="180" height="100" class="class-box" rx="5"/>
  <text x="740" y="420" text-anchor="middle" class="class-name">Achievement</text>
  <text x="660" y="440" class="property">+ String title</text>
  <text x="660" y="455" class="property">+ String description</text>
  <text x="660" y="470" class="property">+ IconData icon</text>
  <text x="660" y="485" class="property">+ Color color</text>
  <text x="660" y="500" class="property">+ bool unlocked</text>
  <text x="660" y="515" class="property">+ String? date</text>
  <text x="660" y="530" class="method">+ Achievement()</text>
  
  <!-- AcademicStat Model -->
  <rect x="850" y="400" width="180" height="80" class="class-box" rx="5"/>
  <text x="940" y="420" text-anchor="middle" class="class-name">AcademicStat</text>
  <text x="860" y="440" class="property">+ String subject</text>
  <text x="860" y="455" class="property">+ double gpa</text>
  <text x="860" y="470" class="property">+ Color color</text>
  <text x="860" y="485" class="method">+ AcademicStat()</text>
  
  <!-- EventType Enum -->
  <rect x="50" y="550" width="180" height="80" class="enum-box" rx="5"/>
  <text x="140" y="570" text-anchor="middle" class="class-name">EventType</text>
  <text x="60" y="590" class="enum">lecture</text>
  <text x="60" y="605" class="enum">studyGroup</text>
  <text x="60" y="620" class="enum">lab</text>
  <text x="60" y="635" class="enum">study</text>
  
  <!-- ActivityItem Model -->
  <rect x="250" y="550" width="180" height="80" class="class-box" rx="5"/>
  <text x="340" y="570" text-anchor="middle" class="class-name">ActivityItem</text>
  <text x="260" y="590" class="property">+ String title</text>
  <text x="260" y="605" class="property">+ String time</text>
  <text x="260" y="620" class="property">+ IconData icon</text>
  <text x="260" y="635" class="property">+ Color color</text>
  
  <!-- SettingsItem Model -->
  <rect x="450" y="550" width="180" height="80" class="class-box" rx="5"/>
  <text x="540" y="570" text-anchor="middle" class="class-name">SettingsItem</text>
  <text x="460" y="590" class="property">+ String title</text>
  <text x="460" y="605" class="property">+ IconData icon</text>
  <text x="460" y="620" class="property">+ VoidCallback onTap</text>
  
  <!-- Relationships -->
  <!-- Main to Splash -->
  <line x1="250" y1="100" x2="300" y2="100" class="arrow"/>
  <text x="275" y="95" text-anchor="middle" font-size="10">launches</text>
  
  <!-- Splash to Home -->
  <line x1="500" y1="110" x2="550" y2="110" class="arrow"/>
  <text x="525" y="105" text-anchor="middle" font-size="10">navigates to</text>
  
  <!-- Home to Screens -->
  <line x1="750" y1="110" x2="800" y2="110" class="arrow"/>
  <text x="775" y="105" text-anchor="middle" font-size="10">contains</text>
  
  <line x1="650" y1="160" x2="150" y2="200" class="arrow"/>
  <text x="400" y="180" text-anchor="middle" font-size="10">contains</text>
  
  <line x1="650" y1="160" x2="400" y2="200" class="arrow"/>
  <text x="525" y="180" text-anchor="middle" font-size="10">contains</text>
  
  <line x1="650" y1="160" x2="650" y2="200" class="arrow"/>
  <text x="670" y="180" text-anchor="middle" font-size="10">contains</text>
  
  <!-- Screen to Data Models -->
  <line x1="150" y1="300" x2="140" y2="400" class="dependency"/>
  <text x="145" y="350" text-anchor="middle" font-size="10">uses</text>
  
  <line x1="400" y1="320" x2="340" y2="400" class="dependency"/>
  <text x="370" y="360" text-anchor="middle" font-size="10">uses</text>
  
  <line x1="650" y1="320" x2="540" y2="400" class="dependency"/>
  <text x="595" y="360" text-anchor="middle" font-size="10">uses</text>
  
  <line x1="650" y1="320" x2="740" y2="400" class="dependency"/>
  <text x="695" y="360" text-anchor="middle" font-size="10">uses</text>
  
  <!-- Schedule to EventType -->
  <line x1="400" y1="320" x2="140" y2="550" class="dependency"/>
  <text x="270" y="435" text-anchor="middle" font-size="10">uses</text>
  
  <!-- UserProfile to Achievement -->
  <line x1="540" y1="500" x2="740" y2="400" class="dependency"/>
  <text x="640" y="450" text-anchor="middle" font-size="10">contains</text>
  
  <!-- UserProfile to AcademicStat -->
  <line x1="540" y1="500" x2="940" y2="400" class="dependency"/>
  <text x="740" y="450" text-anchor="middle" font-size="10">contains</text>
  
  <!-- UserProfile to ActivityItem -->
  <line x1="540" y1="500" x2="340" y2="550" class="dependency"/>
  <text x="440" y="525" text-anchor="middle" font-size="10">contains</text>
  
  <!-- Profile to SettingsItem -->
  <line x1="650" y1="320" x2="540" y2="550" class="dependency"/>
  <text x="595" y="435" text-anchor="middle" font-size="10">uses</text>
  
  <!-- Legend -->
  <rect x="50" y="680" width="400" height="100" fill="#f8f9fa" stroke="#333" stroke-width="1" rx="5"/>
  <text x="250" y="700" text-anchor="middle" class="subtitle">Legend</text>
  <text x="60" y="720" class="method">Main Application Entry Point</text>
  <text x="60" y="735" class="method">UI Screens (StatefulWidget)</text>
  <text x="60" y="750" class="method">Data Models (Immutable Classes)</text>
  <text x="60" y="765" class="method">Enumeration</text>
  
  <!-- Legend Colors -->
  <rect x="350" y="705" width="20" height="15" class="main-box"/>
  <rect x="350" y="725" width="20" height="15" class="class-box"/>
  <rect x="350" y="745" width="20" height="15" class="class-box"/>
  <rect x="350" y="765" width="20" height="15" class="enum-box"/>
</svg> 